Simulation
nRows=46
nColumns=15
endheader
time  TH_x TH_y TH_z SC_y  SC_z  SC_x  AC_y  AC_z  AC_x  GH_y  GH_z  GH_yy  EL_x  PS_y
2.6910411985018725  0.000000  0.000000  0.000000  -28.92044762675148  4.362694669499115  1.2186776248033167  54.697940093197346  8.58846094053451  1.0014751596767677  97.31223947082209  2.5609998741310753  -59.6524702363845  16.021647147627608  120.000000
2.7312059925093632  0.000000  0.000000  0.000000  -28.767551481505826  4.15768993385925  1.0472740288981865  54.78957648754886  8.734181142301376  0.9802161569297034  110.7528171859237  3.8750298078079357  -70.57681152664621  16.82203602085581  120.000000
2.771370786516854  0.000000  0.000000  0.000000  -28.71081985713271  3.988460743661893  0.9597526782428283  54.86486325445529  8.881433450508553  0.9321331989285582  115.70118131280208  5.225046350289201  -73.5625539754607  17.50502690258594  120.000000
2.8115355805243447  0.000000  0.000000  0.000000  -28.727964011989275  3.8493199847589117  0.9357298463076473  54.92848417628411  9.024719287751623  0.8650644154263143  117.77394352031745  6.480537284088106  -74.19119990235386  18.052403833267388  120.000000
2.851700374531835  0.000000  0.000000  0.000000  -28.786408301481774  3.737975732322037  0.9617665880481664  54.98724654168122  9.16147443088166  0.7896428004748066  118.7712135638581  7.576274144162905  -74.19184168069859  18.458384184852367  120.000000
2.8918651685393257  0.000000  0.000000  0.000000  -28.85518332968063  3.6539119784515464  1.0288182604380696  55.046730726511235  9.288751783064205  0.7163538770943595  119.40992624176538  8.471449138532957  -74.1944618413376  18.72505825435703  120.000000
2.9320299625468165  0.000000  0.000000  0.000000  -28.912875239033657  3.596374853559319  1.1279393509154287  55.11086273906366  9.403513399604009  0.6540173849241843  120.0274451861153  9.146480873512104  -74.44711250679714  18.860083614714096  120.000000
2.972194756554307  0.000000  0.000000  0.000000  -28.949775657723816  3.5627929559034  1.249014054492909  55.18155049831013  9.50385023795254  0.6079579555963058  120.79364805031362  9.604043061661422  -75.03863835851806  18.878871764435633  120.000000
3.012359550561798  0.000000  0.000000  0.000000  -28.966622909900885  3.548544261861521  1.3832827413191473  55.25946733445909  9.58981575574066  0.5792066266440212  121.79194871130228  9.868531151577649  -75.98521009543595  18.8052200910487  120.000000
3.0525243445692882  0.000000  0.000000  0.000000  -28.970083838713506  3.5478361635335776  1.5247638240523709  55.344816875199086  9.662893549543037  0.5659457567558512  123.05114212345161  9.980717580347502  -77.26329841526847  18.668353142530894  120.000000
3.092689138576779  0.000000  0.000000  0.000000  -28.967991340933924  3.5545510713611868  1.6706056213717786  55.43751059694772  9.725270478685237  0.5644202485051916  124.56068271990613  9.98951486907877  -78.82385605926379  18.49874491519959  120.000000
3.1328539325842697  0.000000  0.000000  0.000000  -28.96618580281163  3.5633618999435046  1.8205703126940926  55.53700485305953  9.778859615154822  0.5697650811894246  126.28114554109148  9.943026451967318  -80.60083743626788  18.3233694360803  120.000000
3.1730187265917604  0.000000  0.000000  0.000000  -28.967457318400722  3.570575402582846  1.9761004433312817  55.64182072157817  9.824537562728352  0.5767588492947678  128.15634638416614  9.881471841408247  -82.52168800718208  18.16133201276464  120.000000
3.2131835205992507  0.000000  0.000000  0.000000  -28.971986843710855  3.5743432345808808  2.1392518908783456  55.749815868796226  9.862009775379294  0.580496578472568  130.1257519833665  9.833060240659183  -84.51794103107429  18.021524618950636  120.000000
3.2533483146067415  0.000000  0.000000  0.000000  -28.978424564356647  3.574387464257213  2.3120842230628957  55.85862498616838  9.890213057181246  0.5771272081927219  132.13803560254632  9.812952071803231  -86.5365851947678  17.9035343043569  120.000000
3.293513108614232  0.000000  0.000000  0.000000  -28.985131101697675  3.571384083904994  2.4963979380855306  55.96648135274049  9.907975691574906  0.5640432419075516  134.15879330464182  9.825141882353485  -88.5455627968898  17.801046741437585  120.000000
3.333677902621723  0.000000  0.000000  0.000000  -28.991237728359323  3.5662479956012523  2.693840431854223  56.072804871684575  9.914514795575062  0.540030765036499  136.17323585030474  9.865962506902523  -90.53437736155296  17.705718102243708  120.000000
3.3738426966292137  0.000000  0.000000  0.000000  -28.99733323197851  3.559525200876474  2.9060209434308497  56.178597802704004  9.909682712483763  0.5048969003866253  138.1814556655084  9.92830357057739  -92.5079604075031  17.61029215090002  120.000000
3.414007490636704  0.000000  0.000000  0.000000  -29.005848593820204  3.5510964618117318  3.134670434211709  56.28622227037542  9.893965969871422  0.45910571188612265  140.19214880016602  10.005021940203969  -94.47935295332968  17.51073145735472  120.000000
3.4541722846441947  0.000000  0.000000  0.000000  -29.02072409893096  3.5402245310380844  3.3815523700140413  56.39874645820271  9.868299622395526  0.40318701011321423  142.21579697378144  10.091111165208016  -96.46242921701558  17.406845323195203  120.000000
3.4943370786516854  0.000000  0.000000  0.000000  -29.04633631375681  3.5259455652729415  3.648285813281678  56.51884932148254  9.83363201936459  0.3374484716819821  144.26185893367608  10.184222784042948  -98.46881010215505  17.301489773007408  120.000000
3.534501872659176  0.000000  0.000000  0.000000  -29.085896129338305  3.5078274477749423  3.935854653158537  56.64754495784659  9.79040262040647  0.2619817484485496  146.3377436763983  10.284034072754674  -100.50687025206992  17.198926113461535  120.000000
3.574666666666667  0.000000  0.000000  0.000000  -29.13936096315976  3.486655223371298  4.243828424257491  56.78299652647259  9.738220568137388  0.17705751894919544  148.4491739318795  10.39049674889947  -102.58206662661044  17.102819341490335  120.000000
3.614831460674157  0.000000  0.000000  0.000000  -29.201167207055896  3.4649461519818083  4.569744193669146  56.919988808376246  9.675743156738507  0.08352380614825862  150.60182900677708  10.501762201128637  -104.69863690516415  17.01423730152702  120.000000
3.654996254681648  0.000000  0.000000  0.000000  -29.25892914690361  3.4473525942591507  4.908643847020763  57.0498350716867  9.600582207262118  -0.016620713553162365  152.80260325868846  10.612397389932243  -106.86110445632679  16.930216629328623  120.000000
3.6951610486891386  0.000000  0.000000  0.000000  -29.293941168880583  3.440217419660935  5.252755578617756  57.16110342944971  9.509594158637306  -0.12007488408660143  155.05661680064026  10.712136403428286  -109.07207795345181  16.843619028796546  120.000000
3.7353258426966294  0.000000  0.000000  0.000000  -29.283605528481846  3.450522491087053  5.591819214322575  57.24098330611429  9.399368160382457  -0.22268474293239096  157.36068528640521  10.785586250617046  -111.32715643198551  16.74438561636212  120.000000
3.7754906367041197  0.000000  0.000000  0.000000  -29.205595037631145  3.4848418716137877  5.913701191988433  57.27671943315842  9.266766949947511  -0.3198603788802115  159.69403284212393  10.812536672474259  -113.6075151085072  16.621432728970387  120.000000
3.8156554307116104  0.000000  0.000000  0.000000  -29.042674674226276  3.5477206401260784  6.204808809212276  57.257177338250415  9.110039048775272  -0.4077402056315681  162.00246351089223  10.76798654348167  -115.86643953273514  16.46403307764071  120.000000
3.855820224719101  0.000000  0.000000  0.000000  -28.78694034863229  3.6403917378774007  6.451726009579534  57.17437858917416  8.929956922840304  -0.4844823032290576  164.18642670668424  10.62232484698707  -118.01935723044646  16.262818587904274  120.000000
3.895985018726592  0.000000  0.000000  0.000000  -28.44198919828165  3.760333488057707  6.643588567769269  57.02409870035218  8.730230805641353  -0.5514338694481441  166.10183316605443  10.342205163550894  -119.94510656568094  16.010869647655422  120.000000
3.9361498127340826  0.000000  0.000000  0.000000  -28.023138919478715  3.9018686013242054  6.771999808370383  56.80579373328052  8.517604495702605  -0.6122577579158875  167.567376387425  9.893165917007705  -121.4918007688135  15.701906857125742  120.000000
3.976314606741573  0.000000  0.000000  0.000000  -27.554579680094047  4.05723030807593  6.83073612393573  56.5226720414415  8.300513801273825  -0.6713220737655866  168.36456161987695  9.243774287573467  -122.47253121355773  15.32954273391202  120.000000
4.016479400749064  0.000000  0.000000  0.000000  -27.063764441261103  4.217821635528149  6.815099436033048  56.18078453809184  8.090277665996352  -0.7304147636915993  168.21370844998012  8.371290212291926  -122.6363717720152  14.89200451069094  120.000000
4.056644194756554  0.000000  0.000000  0.000000  -26.577525031694282  4.378151034540781  6.7211954866254615  55.789828428270546  7.903613822250115  -0.783075118244921  166.65674327877272  7.268067698795944  -121.55006985133878  14.395820961227535  120.000000
4.096808988764045  0.000000  0.000000  0.000000  -26.118443138191974  4.537614635820357  6.5514509719829395  55.3642839894902  7.762560086602475  -0.8165448667951501  162.72469375734613  5.950272151086416  -118.26284867368189  13.858369204778716  120.000000
4.136973782771536  0.000000  0.000000  0.000000  -25.702376703568255  4.699026796129402  6.318499288781777  54.92293569199286  7.695152056785036  -0.8160674419442412  153.97806818962175  4.484087442239152  -110.3415174211934  13.308696608517847  120.000000
4.177138576779027  0.000000  0.000000  0.000000  -25.340451848394288  4.868844760168605  6.042398906552645  54.485022443231884  7.732698312535424  -0.7654655192229841  133.34252969064957  3.0988550538700075  -90.70558145679678  12.783261599857193  120.000000
4.217303370786517  0.000000  0.000000  0.000000  -25.041946962859594  5.055651552454035  5.747317062824612  54.0658883505977  7.90393784738605  -0.6499165729326625  89.83909603928669  2.593666990190006  -48.3617713711059  12.319362288777079  120.000000
4.257468164794007  0.000000  0.000000  0.000000  -24.815100952238584  5.26630473498327  5.458271218953107  53.67528416826936  8.230128620251556  -0.45945449414010514  51.49407362529306  3.7731948351271627  -11.319668215671982  11.946971755131358  120.000000
4.297632958801498  0.000000  0.000000  0.000000  -24.666921673888606  5.503192178258608  5.196720347555564  53.3167445385637  8.722541562124608  -0.18957333560545644  34.12984846171897  5.884079585642901  4.613903720091399  11.680303615980677  120.000000
4.337797752808989  0.000000  0.000000  0.000000  -24.602614745072735  5.763623878117351  4.97832561901612  52.98864438422537  9.380774491921512  0.1596495576499259  25.645602261659093  8.364098684880519  11.552941568591217  11.513479662747088  120.000000
4.377962546816479  0.000000  0.000000  0.000000  -24.624729965773895  6.040875935276738  4.815292761307228  52.68564631755394  10.190997490230053  0.5835456909160249  20.697217400864876  11.03492110861854  14.851714748184394  11.42328409212686  120.000000
4.41812734082397  0.000000  0.000000  0.000000  -24.733481596336127  6.325533252660347  4.718367619908588  52.40188217632646  11.127948055119102  1.0738646593761334  17.448442412477092  13.817066216907321  16.354829629318356  11.376775245962477  120.000000
4.458292134831461  0.000000  0.000000  0.000000  -24.926443940870367  6.60766326965231  4.697321063161044  52.13339567964613  12.158053537767614  1.6206690651372337  15.161929541842682  16.658954467176766  16.808728032750434  11.340156710719347  120.000000
4.4984569288389515  0.000000  0.000000  0.000000  -25.19773428376307  6.87920033706981  4.761154636852556  51.87950933650112  13.242054898559733  2.2138844032075444  13.485955232210417  19.52108801791902  16.578406419672064  11.286396714239807  120.000000
